<?xml version="1.0" standalone="no"?>
<!DOCTYPE svg PUBLIC "-//W3C//DTD SVG 20010904//EN"
 "http://www.w3.org/TR/2001/REC-SVG-20010904/DTD/svg10.dtd">
<svg version="1.0" xmlns="http://www.w3.org/2000/svg"
 width="512.000000pt" height="512.000000pt" viewBox="0 0 512.000000 512.000000"
 preserveAspectRatio="xMidYMid meet">
<metadata>
Created by potrace 1.11, written by Peter Selinger 2001-2013
</metadata>
<g transform="translate(0.000000,512.000000) scale(0.100000,-0.100000)"
fill="#000000" stroke="none">
<path d="M3165 4850 c-27 -4 -72 -10 -100 -14 -112 -14 -269 -57 -410 -114
-485 -193 -855 -602 -959 -1060 -14 -62 -29 -157 -29 -189 0 -7 -3 -13 -6 -14
-3 0 -13 -2 -21 -3 -8 -2 -49 -6 -90 -10 -66 -5 -170 -23 -238 -40 -12 -3 -32
-8 -43 -11 -101 -22 -298 -98 -421 -162 -329 -172 -596 -444 -731 -744 -36
-80 -83 -224 -91 -279 -3 -19 -10 -62 -15 -95 -13 -86 -5 -306 13 -402 46
-233 148 -445 306 -638 40 -49 60 -84 67 -115 20 -94 0 -254 -44 -349 -20 -43
-81 -134 -118 -175 -33 -38 -40 -66 -26 -108 18 -54 56 -70 154 -64 230 14
435 93 619 237 l87 68 78 -24 c74 -23 242 -56 363 -71 167 -20 479 -8 632 26
29 6 62 13 73 16 100 19 257 79 390 146 316 160 561 401 709 696 33 66 81 184
90 222 2 8 11 42 19 75 9 33 19 93 23 133 5 56 10 72 23 73 9 0 23 2 31 3 8 2
49 6 90 10 41 3 86 8 100 11 14 2 54 9 90 15 36 6 99 20 140 32 136 37 137 37
158 18 174 -162 421 -268 671 -286 112 -8 171 24 171 94 0 22 -28 73 -60 109
-111 124 -167 323 -138 485 8 41 22 66 67 122 50 61 97 128 148 211 68 109
137 303 162 454 21 125 21 332 2 436 -78 404 -317 738 -706 987 -67 42 -267
147 -283 148 -4 0 -36 12 -72 26 -81 32 -311 92 -387 100 -32 3 -62 8 -67 11
-13 8 -364 10 -421 3z"/>
</g>
</svg>
